<svg width="29" height="34" viewBox="0 0 29 34" fill="none" xmlns="http://www.w3.org/2000/svg">
<g id="&#240;&#159;&#166;&#134; icon &#34;Twitter Square&#34;">
<path id="Vector" d="M25.7839 0.990234H3.21621C1.51722 0.990234 0.138794 2.54977 0.138794 4.47199V30.0049C0.138794 31.9271 1.51722 33.4866 3.21621 33.4866H25.7839C27.4829 33.4866 28.8613 31.9271 28.8613 30.0049V4.47199C28.8613 2.54977 27.4829 0.990234 25.7839 0.990234ZM22.6488 12.509C22.6616 12.7121 22.6616 12.9225 22.6616 13.1256C22.6616 19.4145 18.4302 26.6609 10.6982 26.6609C8.31317 26.6609 6.10128 25.8775 4.24201 24.5283C4.58181 24.5719 4.90878 24.5864 5.25499 24.5864C7.22325 24.5864 9.03123 23.832 10.4738 22.5553C8.62732 22.5118 7.07579 21.1409 6.54366 19.2549C7.1912 19.3637 7.77462 19.3637 8.4414 19.1679C6.51801 18.7254 5.07548 16.8105 5.07548 14.4965V14.4385C5.63326 14.7939 6.28721 15.0115 6.97321 15.0406C6.39647 14.6065 5.92368 14.0177 5.59701 13.3266C5.27035 12.6356 5.09999 11.8638 5.10112 11.0801C5.10112 10.1951 5.30628 9.38271 5.67173 8.67911C7.74257 11.5661 10.852 13.452 14.3398 13.6551C13.7435 10.4272 15.8785 7.80867 18.443 7.80867C19.6547 7.80867 20.7446 8.38171 21.514 9.31018C22.4629 9.10707 23.3733 8.70812 24.1811 8.1641C23.8669 9.26665 23.2066 10.1951 22.3346 10.7827C23.1809 10.6811 24.0016 10.4127 24.7581 10.0428C24.1875 10.993 23.4694 11.8344 22.6488 12.509Z" fill="white"/>
</g>
</svg>
