<svg width="29" height="34" viewBox="0 0 29 34" fill="none" xmlns="http://www.w3.org/2000/svg">
<g id="&#240;&#159;&#166;&#134; icon &#34;LinkedIn&#34;">
<path id="Vector" d="M26.9484 0.990234H2.32266C1.19428 0.990234 0.277466 2.04201 0.277466 3.33317V31.1437C0.277466 32.4348 1.19428 33.4866 2.32266 33.4866H26.9484C28.0768 33.4866 29 32.4348 29 31.1437V3.33317C29 2.04201 28.0768 0.990234 26.9484 0.990234ZM8.95833 28.8443H4.70125V13.336H8.96474V28.8443H8.95833ZM6.82979 11.2179C5.46419 11.2179 4.36145 9.96301 4.36145 8.42523C4.36145 6.88746 5.46419 5.63257 6.82979 5.63257C8.18898 5.63257 9.29813 6.88746 9.29813 8.42523C9.29813 9.97026 8.19539 11.2179 6.82979 11.2179ZM24.916 28.8443H20.6589V21.3005C20.6589 19.5016 20.6269 17.1876 18.447 17.1876C16.2287 17.1876 15.8889 19.1461 15.8889 21.1699V28.8443H11.6318V13.336H15.7158V15.454H15.7735C16.3441 14.2354 17.7354 12.9515 19.8062 12.9515C24.1146 12.9515 24.916 16.1649 24.916 20.343V28.8443Z" fill="white"/>
</g>
</svg>
