<svg width="29" height="34" viewBox="0 0 29 34" fill="none" xmlns="http://www.w3.org/2000/svg">
<g id="&#240;&#159;&#166;&#134; icon &#34;Facebook Square&#34;">
<path id="Vector" d="M25.6451 0.990234H3.07741C2.26123 0.990234 1.47848 1.35706 0.901353 2.01002C0.324226 2.66297 0 3.54857 0 4.47199L0 30.0049C0 30.9283 0.324226 31.8139 0.901353 32.4668C1.47848 33.1198 2.26123 33.4866 3.07741 33.4866H11.8769V22.4386H7.83778V17.2384H11.8769V13.275C11.8769 8.76688 14.2491 6.2767 17.8823 6.2767C19.6224 6.2767 21.4419 6.62778 21.4419 6.62778V11.0525H19.4371C17.4618 11.0525 16.8456 12.4394 16.8456 13.8618V17.2384H21.2553L20.5501 22.4386H16.8456V33.4866H25.6451C26.4613 33.4866 27.244 33.1198 27.8212 32.4668C28.3983 31.8139 28.7225 30.9283 28.7225 30.0049V4.47199C28.7225 3.54857 28.3983 2.66297 27.8212 2.01002C27.244 1.35706 26.4613 0.990234 25.6451 0.990234Z" fill="white"/>
</g>
</svg>
